<?xml version="1.0" standalone="no"?>
<!DOCTYPE svg PUBLIC "-//W3C//DTD SVG 20010904//EN"
 "http://www.w3.org/TR/2001/REC-SVG-20010904/DTD/svg10.dtd">
<svg version="1.0" xmlns="http://www.w3.org/2000/svg"
 width="310.000000pt" height="310.000000pt" viewBox="0 0 310.000000 310.000000"
 preserveAspectRatio="xMidYMid meet">
<metadata>
Created by potrace 1.11, written by Peter Selinger 2001-2013
</metadata>
<g transform="translate(0.000000,310.000000) scale(0.100000,-0.100000)"
fill="#000000" stroke="none">
<path d="M242 3080 c-6 -11 -12 -26 -12 -34 0 -20 54 -63 88 -71 33 -7 90 -63
118 -115 27 -49 36 -53 64 -25 14 13 37 36 53 50 15 14 27 29 27 33 0 16 -28
109 -43 145 l-16 37 -133 0 c-122 0 -134 -2 -146 -20z"/>
<path d="M860 2915 c0 -12 5 -15 16 -11 12 4 15 2 10 -9 -3 -8 -1 -15 4 -15 6
0 10 5 10 10 0 6 7 10 15 10 13 0 13 -3 3 -20 -14 -22 -34 -26 -40 -8 -2 6
-11 12 -20 14 -11 1 -15 -3 -11 -12 3 -8 9 -14 14 -14 5 0 9 -4 9 -10 0 -5 -7
-10 -15 -10 -8 0 -15 -4 -15 -9 0 -15 29 -33 45 -27 8 3 15 1 15 -4 0 -6 -7
-10 -15 -10 -8 0 -15 -4 -15 -10 0 -5 6 -10 14 -10 9 0 14 -12 14 -36 0 -27
-3 -34 -15 -30 -11 5 -14 -1 -11 -26 3 -31 6 -33 63 -45 33 -7 105 -15 160
-18 159 -7 205 -19 242 -61 36 -40 57 -90 42 -99 -5 -4 -9 3 -9 14 0 22 -60
95 -91 111 -9 5 -61 12 -116 16 -223 13 -499 62 -603 107 -25 10 -58 23 -73
28 l-29 8 7 -62 c4 -34 15 -111 25 -170 29 -182 14 -422 -30 -491 -24 -37 -24
-34 -6 41 8 32 17 94 19 138 3 44 3 69 1 55 -28 -150 -50 -219 -116 -352 -82
-167 -123 -283 -139 -394 -9 -56 -19 -89 -37 -112 -19 -25 -27 -51 -32 -110
-4 -42 -16 -114 -25 -159 -16 -76 -16 -86 -1 -129 27 -80 63 -130 118 -167 52
-34 138 -76 208 -102 89 -34 237 -98 365 -160 208 -99 275 -131 325 -151 25
-11 106 -52 181 -92 163 -86 205 -101 457 -168 257 -68 573 -93 748 -59 88 17
170 54 210 96 l26 28 -93 -30 c-52 -17 -114 -32 -139 -33 -25 -2 -31 -1 -15 1
17 2 34 9 40 14 5 5 17 9 27 9 21 0 23 11 6 28 -10 10 -10 17 0 33 11 18 11
24 -4 40 -16 18 -40 27 -31 12 6 -10 -13 -11 -338 -17 -242 -5 -282 -4 -385
15 -172 30 -304 67 -414 116 -99 43 -137 66 -271 162 -79 57 -170 111 -185
111 -5 0 -10 6 -10 13 0 6 -14 18 -31 26 -16 7 -28 16 -25 19 6 5 159 -80 191
-107 11 -10 49 -35 85 -56 249 -146 279 -160 415 -190 44 -9 107 -24 140 -33
108 -27 407 -57 460 -45 17 4 64 7 105 8 169 5 217 10 234 28 17 16 35 21 64
18 23 -4 80 20 86 34 3 9 18 15 35 15 36 0 63 9 56 20 -3 5 5 6 17 2 13 -3 19
-1 15 5 -3 5 9 27 28 48 33 35 46 75 26 75 -5 0 -16 -11 -25 -25 -9 -14 -13
-25 -10 -25 4 0 -10 -13 -31 -30 -21 -16 -44 -30 -52 -30 -8 0 -12 -4 -9 -9 6
-9 -7 -12 -194 -40 -141 -22 -201 -25 -380 -21 -116 3 -110 4 87 11 236 9 343
28 443 80 64 33 77 44 108 83 30 39 28 56 -3 22 -13 -14 -26 -26 -28 -26 -4 0
7 74 23 154 15 75 0 133 -43 176 -17 17 -34 30 -38 30 -4 0 -14 6 -22 14 -32
33 -277 123 -298 110 -10 -6 -164 74 -194 102 -14 13 -29 24 -33 25 -4 1 -24
13 -44 26 -32 22 -35 27 -25 44 10 16 9 21 -3 29 -8 5 -22 10 -30 10 -8 0 -22
6 -30 13 -28 23 -77 92 -83 117 -4 14 -4 19 -1 13 8 -18 24 -16 24 2 0 8 -6
15 -12 15 -9 0 -8 4 2 10 12 8 12 10 -5 10 -17 0 -18 2 -5 11 11 8 7 9 -19 6
-29 -3 -40 1 -63 27 -15 17 -28 41 -28 53 0 27 -7 28 -34 8 -11 -8 -27 -15
-36 -15 -18 0 -45 -42 -54 -85 -6 -27 -2 -35 26 -57 83 -66 83 -66 64 -87 -10
-11 -24 -17 -32 -14 -19 7 -64 -24 -64 -44 0 -13 -3 -14 -12 -5 -11 11 -16 49
-17 126 -1 16 -4 27 -7 23 -4 -3 -12 0 -20 8 -11 11 -7 24 28 84 22 39 47 71
55 71 11 0 11 4 3 20 -7 14 -7 20 0 20 5 0 10 -4 10 -10 0 -19 27 -10 55 20
16 17 24 30 17 30 -6 0 -14 -4 -17 -10 -11 -18 -23 -10 -42 29 l-20 40 -49
-50 c-57 -58 -109 -93 -124 -84 -6 4 -18 1 -26 -6 -8 -6 -17 -10 -20 -7 -2 3
12 18 33 34 53 41 117 104 138 136 9 15 21 26 25 23 4 -2 5 7 2 22 -3 14 -1
23 4 20 13 -7 8 96 -5 121 -5 10 -18 25 -27 33 -10 8 -15 9 -11 2 10 -16 -97
-110 -140 -122 -20 -6 -38 -9 -40 -7 -4 4 104 76 113 76 11 0 45 43 55 68 13
33 11 99 -2 125 -7 12 -21 29 -33 38 -20 17 -22 17 -40 -1 -15 -15 -17 -23 -8
-47 6 -18 6 -36 1 -46 -23 -40 -184 -51 -247 -16 l-37 20 58 -6 c65 -6 138 10
131 30 -3 7 17 39 43 71 70 86 100 153 82 185 -8 16 -12 17 -24 7 -86 -81
-105 -100 -105 -110 0 -7 5 -6 15 2 9 8 15 9 15 2 0 -6 -10 -18 -22 -26 -16
-11 -18 -16 -7 -16 8 0 25 10 38 21 l23 21 -4 -22 c-2 -17 -14 -26 -46 -36
-24 -7 -56 -10 -70 -7 -15 3 -34 7 -42 8 -52 9 -81 19 -92 33 -11 14 -10 15 7
8 36 -15 93 -23 106 -15 7 4 18 5 25 2 8 -3 11 2 8 15 -4 13 15 39 69 93 41
41 82 86 92 101 19 31 14 66 -7 48 -23 -18 -88 -60 -127 -80 -49 -24 -90 -13
-157 42 -53 44 -53 45 5 17 26 -12 57 -19 79 -17 32 3 37 7 40 31 2 16 11 31
19 34 20 8 49 -27 32 -38 -6 -4 -10 -11 -8 -17 2 -6 21 1 43 16 30 21 45 41
62 87 27 70 30 99 10 92 -9 -4 -17 7 -25 32 -6 21 -23 50 -37 65 -27 26 -137
87 -184 101 -39 11 -94 38 -108 52 -14 13 -19 15 -62 18 -14 1 -62 9 -108 18
-45 9 -86 16 -90 16 -4 -1 -9 0 -12 1 -3 1 -12 3 -21 5 -9 1 -31 6 -48 10 -25
5 -31 3 -31 -10z m123 -32 c-7 -2 -19 -2 -25 0 -7 3 -2 5 12 5 14 0 19 -2 13
-5z m-73 -53 c0 -5 -7 -10 -15 -10 -8 0 -15 5 -15 10 0 6 7 10 15 10 8 0 15
-4 15 -10z m426 -115 c-45 -40 -120 -79 -138 -72 -8 3 -3 9 12 15 14 6 49 29
79 51 67 51 103 55 47 6z m-71 -255 c3 -6 -1 -7 -9 -4 -18 7 -21 14 -7 14 6 0
13 -4 16 -10z m327 -503 c-12 -6 -25 -7 -29 -3 -11 10 18 25 35 18 13 -4 11
-8 -6 -15z m-4 -24 c-5 -7 -26 -16 -47 -19 -20 -4 -43 -15 -51 -24 -23 -26
-80 -43 -97 -28 -11 9 -16 9 -22 -1 -7 -10 -9 -10 -14 2 -4 10 8 17 41 26 26
6 65 22 87 35 43 25 122 32 103 9z m-138 -186 c0 -5 -4 -5 -10 -2 -5 3 -10 14
-10 23 0 15 2 15 10 2 5 -8 10 -19 10 -23z m127 -82 c-15 -6 -25 -13 -23 -16
2 -2 -14 -3 -35 -2 -22 0 -43 4 -46 7 -12 12 8 20 45 18 20 -1 44 2 52 7 8 5
19 7 24 3 6 -3 -2 -11 -17 -17z m-146 -3 c-13 -2 -27 0 -32 5 -6 6 3 7 23 4
28 -4 29 -6 9 -9z m223 -126 c-5 -13 -9 -14 -21 -4 -13 10 -13 13 4 19 23 8
25 6 17 -15z m156 -152 c0 -8 -4 -12 -10 -9 -5 3 -10 10 -10 16 0 5 5 9 10 9
6 0 10 -7 10 -16z m74 -29 c-4 -8 -1 -15 6 -15 9 0 8 -7 -4 -24 -15 -24 -13
-56 5 -56 13 0 11 14 -3 30 -11 12 -10 12 4 1 32 -24 88 -134 59 -117 -6 4
-11 2 -11 -4 0 -6 7 -13 16 -17 15 -5 15 -7 0 -15 -16 -9 -23 -30 -8 -26 4 1
18 -3 32 -10 14 -6 36 -13 50 -16 20 -4 26 -11 25 -33 0 -21 5 -29 22 -31 12
-2 25 -11 28 -20 7 -23 51 -48 98 -57 26 -5 37 -12 33 -21 -3 -7 6 -22 19 -33
25 -19 32 -41 18 -55 -4 -3 -8 -14 -9 -23 -6 -36 -50 -102 -80 -118 -27 -14
-35 -15 -55 -4 -13 7 -27 12 -31 11 -5 -1 -8 2 -8 7 0 10 -79 51 -98 51 -7 0
-12 6 -12 14 0 18 -100 107 -112 100 -4 -3 -8 2 -8 10 0 9 -3 16 -8 16 -4 0
-13 9 -20 20 -10 17 -8 26 14 61 45 71 84 179 66 179 -5 0 -13 -14 -18 -32 -5
-17 -15 -33 -21 -35 -7 -3 -30 14 -51 36 -22 23 -45 41 -51 41 -6 0 -11 4 -11
10 0 5 7 6 17 3 10 -4 14 -2 10 4 -4 6 1 10 10 9 10 0 21 10 26 25 8 21 6 30
-13 49 l-23 23 34 28 c19 16 39 33 44 38 15 15 25 13 19 -4z m-119 -75 c-3 -5
-10 -10 -16 -10 -5 0 -9 5 -9 10 0 6 7 10 16 10 8 0 12 -4 9 -10z m967 -497
c6 -24 4 -41 -6 -62 -18 -34 -80 -85 -116 -95 -82 -22 -279 -12 -306 16 -8 9
-9 21 -3 35 7 18 14 22 36 17 46 -9 193 44 318 114 37 21 68 10 77 -25z
m-1124 -327 c31 -8 68 -17 82 -19 19 -3 16 -5 -11 -6 -33 -1 -159 35 -159 46
0 3 7 2 15 -1 9 -3 41 -12 73 -20z m330 -63 c-10 -2 -28 -2 -40 0 -13 2 -5 4
17 4 22 1 32 -1 23 -4z m505 -250 c-7 -2 -19 -2 -25 0 -7 3 -2 5 12 5 14 0 19
-2 13 -5z"/>
<path d="M1910 1230 c0 -5 5 -10 10 -10 6 0 10 5 10 10 0 6 -4 10 -10 10 -5 0
-10 -4 -10 -10z"/>
<path d="M818 2913 c7 -3 16 -2 19 1 4 3 -2 6 -13 5 -11 0 -14 -3 -6 -6z"/>
<path d="M1516 2064 c-5 -12 -2 -15 10 -10 8 3 18 6 20 6 2 0 4 5 4 10 0 16
-27 11 -34 -6z"/>
<path d="M2857 623 c-11 -10 -8 -53 3 -53 6 0 10 14 10 30 0 31 -2 35 -13 23z"/>
</g>
</svg>
